<svg version="1.1" id="Layer_1" xmlns="http://www.w3.org/2000/svg" xmlns:xlink="http://www.w3.org/1999/xlink" x="0px" y="0px"
	 width="100%" viewBox="0 0 234 164" enable-background="new 0 0 234 164" xml:space="preserve">
<path fill="#FDFEFE" opacity="1.000000" stroke="none" 
	d="
M143.000000,165.000000 
	C95.333336,165.000000 48.166672,165.000000 1.000006,165.000000 
	C1.000004,110.333336 1.000004,55.666679 1.000002,1.000014 
	C78.999992,1.000009 156.999985,1.000009 234.999969,1.000005 
	C234.999985,55.666653 234.999985,110.333305 235.000000,164.999969 
	C204.500000,165.000000 174.000000,165.000000 143.000000,165.000000 
M125.472176,29.083046 
	C124.977852,29.387739 124.483521,29.692430 123.334351,30.062071 
	C122.240173,30.779205 121.146004,31.496340 119.508034,31.782064 
	C118.681198,30.829273 117.854362,29.876480 116.146385,28.911186 
	C114.091805,28.910458 112.037231,28.909729 109.419327,28.356215 
	C105.601410,28.982786 101.783493,29.609358 97.349091,30.348873 
	C96.723793,30.377634 96.098495,30.406395 94.711594,30.161869 
	C93.439163,30.660326 92.166733,31.158783 90.191010,31.855320 
	C89.464386,31.921307 88.737755,31.987293 87.632683,31.556929 
	C86.042168,32.202862 84.451653,32.848797 82.262489,33.740299 
	C81.836426,33.797974 81.410370,33.855648 80.664795,33.470222 
	C80.085838,33.915737 79.506889,34.361256 78.182846,35.044315 
	C62.277321,39.766407 48.230961,47.533878 36.426735,60.137424 
	C36.069561,60.858917 35.712387,61.580414 34.942539,62.837269 
	C33.535301,65.171623 32.128059,67.505981 30.109863,70.061234 
	C29.867336,70.810547 29.624809,71.559853 29.218681,72.943108 
	C29.059731,73.578087 28.900780,74.213066 28.100248,75.051071 
	C27.931141,75.827782 27.762033,76.604485 27.469801,78.031525 
	C27.370461,78.686241 27.271122,79.340965 26.514446,80.417099 
	C24.253595,86.065788 24.223034,91.606636 27.393518,97.542763 
	C27.452024,97.905869 27.510529,98.268967 27.280291,99.247841 
	C27.749065,99.890717 28.217840,100.533600 28.835503,101.623268 
	C28.835503,101.623268 28.928848,102.084869 28.858654,102.801376 
	C29.553684,103.664970 30.248716,104.528572 30.933443,106.059441 
	C31.569017,106.294510 32.204594,106.529572 32.840168,106.764641 
	C32.312496,105.445595 31.784824,104.126549 31.130510,102.342934 
	C31.130510,102.342934 30.909050,101.915359 30.903521,101.057594 
	C31.014891,99.064201 31.126259,97.070808 31.840284,94.950027 
	C31.925875,93.972931 32.011467,92.995834 32.123108,91.367149 
	C32.257313,90.955788 32.391514,90.544434 33.122730,89.875084 
	C34.003159,87.474388 34.883591,85.073685 35.816097,82.313805 
	C35.816097,82.313805 36.000298,82.001083 36.693855,81.913040 
	C37.679306,80.125237 38.664753,78.337440 39.838936,76.061417 
	C40.196381,75.689972 40.553829,75.318520 41.621536,74.899612 
	C41.999073,74.153259 42.376610,73.406906 43.088245,72.106010 
	C44.977573,70.349319 46.866898,68.592628 49.466072,66.885956 
	C49.941654,66.201500 50.417236,65.517044 51.210609,64.300621 
	C52.396980,63.481743 53.583351,62.662865 55.429150,61.916561 
	C55.974972,61.337955 56.520790,60.759350 57.536690,59.704842 
	C59.574543,58.383354 61.612400,57.061863 64.429909,55.911213 
	C64.959969,55.943981 65.490021,55.976746 66.024979,56.727524 
	C64.774162,58.619541 63.523346,60.511562 62.105911,62.809563 
	C61.930042,63.067036 61.687984,63.219234 60.661335,63.098137 
	C58.751209,65.002335 56.841087,66.906525 54.599133,69.325218 
	C53.984032,69.841248 53.368931,70.357277 52.048286,70.862587 
	C51.056042,71.948143 50.063797,73.033699 48.810635,74.663361 
	C48.358170,75.061630 47.905701,75.459900 46.835480,75.882858 
	C46.358089,76.258759 45.880699,76.634659 45.403309,77.010567 
	C46.212284,77.368835 47.021263,77.727112 48.708122,78.162231 
	C50.317570,78.277458 51.927021,78.392677 54.098724,78.548157 
	C54.098724,80.796959 54.081379,82.729111 54.101498,84.660866 
	C54.246113,98.545876 54.398331,112.430809 54.105869,126.964111 
	C53.139797,127.666801 52.173725,128.369507 50.231804,129.781998 
	C53.940460,131.771393 56.960880,133.391617 60.631878,135.242844 
	C67.813171,138.401581 74.927864,141.727127 82.209572,144.634338 
	C84.998489,145.747803 88.169006,145.905518 91.772758,146.695572 
	C92.196365,146.715408 92.619972,146.735245 93.386703,147.303787 
	C94.925568,147.538742 96.464439,147.773712 98.725899,148.141434 
	C99.702957,148.201233 100.680008,148.261017 102.092216,148.938248 
	C104.442482,149.160706 106.792747,149.383148 109.851990,149.772949 
	C110.578323,149.783798 111.304657,149.794647 112.611794,150.335464 
	C115.749916,150.282745 118.888031,150.230026 122.906769,150.248657 
	C125.262772,150.233948 127.618774,150.219254 130.580002,150.666061 
	C133.041168,150.376907 135.502319,150.087753 138.743790,149.864685 
	C139.778824,149.766220 140.813873,149.667770 142.660889,149.847275 
	C144.888885,149.339523 147.116882,148.831757 150.008987,148.317017 
	C150.668350,148.240967 151.327713,148.164917 152.503906,148.476791 
	C154.318848,147.897766 156.133804,147.318726 158.588715,146.756393 
	C159.000793,146.653229 159.412888,146.550064 160.476791,146.725342 
	C161.414230,146.234726 162.351669,145.744095 164.011276,145.172607 
	C164.956375,144.973328 165.901459,144.774048 167.581314,144.777390 
	C169.712616,143.807999 171.843903,142.838608 174.609177,141.792282 
	C175.009491,141.652466 175.409790,141.512650 176.478348,141.627914 
	C178.442474,140.532913 180.406601,139.437912 182.907379,138.235153 
	C183.239014,138.085861 183.570648,137.936569 184.515244,137.871948 
	C185.139618,137.374512 185.763992,136.877090 186.918549,136.224670 
	C187.231735,136.033371 187.544937,135.842072 188.478806,135.777725 
	C189.059174,135.242813 189.639542,134.707901 190.810776,133.864761 
	C192.855835,132.541718 194.900894,131.218674 197.576431,129.918442 
	C198.136414,129.349014 198.696396,128.779587 199.873734,127.971886 
	C202.909851,124.977692 205.945984,121.983505 209.663040,118.912811 
	C210.018448,118.180992 210.373856,117.449173 211.009644,116.121040 
	C212.066223,114.446983 213.122787,112.772919 214.851700,110.945435 
	C216.267181,106.299591 217.682648,101.653748 219.085968,96.373444 
	C219.136322,95.953835 219.186676,95.534233 219.920898,94.868019 
	C219.687683,92.542580 219.454483,90.217140 219.119171,87.172768 
	C219.095505,86.447319 219.071838,85.721870 219.546188,84.558640 
	C218.835159,82.646149 218.124130,80.733650 217.223038,78.227730 
	C217.150284,77.818932 217.077545,77.410141 217.479675,76.602364 
	C216.314301,74.738136 215.148926,72.873909 213.823303,70.653427 
	C213.823303,70.653427 213.728485,70.274467 213.863251,69.536636 
	C212.552063,65.903488 210.705383,62.763012 205.971344,61.969879 
	C206.876953,63.692780 207.782562,65.415680 208.834732,67.751137 
	C208.873138,68.168762 208.911545,68.586380 208.407822,69.595726 
	C208.598114,73.063782 208.788406,76.531845 208.945679,80.713722 
	C208.822220,81.415695 208.698761,82.117676 207.969284,83.052551 
	C207.780273,83.821342 207.591278,84.590134 207.292892,85.908699 
	C207.187378,86.267006 207.081848,86.625313 206.412903,87.033264 
	C206.239944,87.685150 206.066986,88.337029 205.776047,89.618484 
	C205.158310,90.729439 204.540573,91.840401 203.256790,93.067581 
	C202.934052,93.809830 202.611298,94.552071 202.035568,95.908844 
	C200.363724,97.943413 198.691879,99.977982 196.337723,102.049759 
	C195.565704,103.041382 194.793671,104.032997 194.000000,105.000000 
	C194.000000,105.000000 194.024628,105.021584 193.369110,105.049316 
	C192.916199,105.704659 192.463303,106.360008 191.632507,107.556259 
	C189.162262,109.439369 186.692017,111.322479 183.485352,113.108047 
	C180.298248,115.361877 177.111145,117.615707 173.570786,120.056740 
	C173.570786,120.056740 173.186676,120.167648 172.454559,120.074348 
	C170.568497,121.222832 168.682449,122.371307 166.232086,123.849037 
	C165.640305,124.125259 165.048508,124.401482 163.757690,124.351570 
	C161.796021,125.486877 159.834366,126.622192 157.270355,128.008469 
	C156.632645,128.142838 155.994934,128.277206 154.651611,128.167435 
	C153.733337,128.711914 152.815063,129.256393 151.274918,129.984177 
	C150.645676,130.139740 150.016418,130.295303 148.776443,130.211395 
	C148.118439,130.640457 147.460434,131.069534 146.216507,131.710281 
	C145.810104,131.792908 145.403717,131.875534 144.686203,131.510529 
	C144.088409,131.939819 143.490601,132.369110 142.216522,133.014755 
	C141.280960,133.151627 140.345413,133.288513 138.576019,133.162857 
	C134.986603,134.210327 131.397202,135.257782 127.004784,136.528488 
	C125.332054,136.654129 123.659317,136.779755 121.467148,136.378891 
	C118.638557,136.980438 115.809967,137.582001 112.190308,138.278183 
	C110.607712,138.348175 109.025108,138.418167 106.484055,138.160614 
	C102.174477,138.270798 97.864891,138.380966 92.716225,138.511475 
	C90.150452,138.393707 87.584679,138.275925 84.611870,137.576981 
	C83.703674,137.415176 82.795486,137.253372 81.003494,137.122482 
	C77.329758,136.788895 73.656021,136.455307 69.615074,135.472412 
	C66.766487,134.581009 63.917900,133.689606 60.894020,132.154144 
	C59.928093,131.086960 58.962166,130.019775 58.755756,129.092636 
	C60.252285,129.335068 61.748810,129.577499 63.988789,129.859818 
	C64.935661,130.126892 65.882538,130.393967 67.066315,131.280411 
	C67.873230,131.369446 68.680145,131.458481 69.995697,131.523468 
	C70.321495,131.611969 70.647301,131.700470 71.293808,132.468689 
	C73.514824,132.731079 75.735847,132.993469 78.600662,133.193954 
	C79.023788,133.266907 79.446907,133.339844 80.065201,134.179733 
	C83.561951,134.714584 87.087555,135.831039 90.549240,135.659271 
	C97.100128,135.334167 103.614304,134.269363 110.911140,133.341125 
	C111.956848,133.312973 113.002548,133.284821 114.619141,133.768539 
	C117.420044,133.109924 120.220955,132.451309 123.616867,131.612595 
	C124.235657,131.574005 124.854454,131.535416 126.308762,131.831573 
	C129.593170,130.754410 132.877579,129.677261 136.757217,128.347015 
	C137.184036,128.298630 137.610870,128.250259 138.530945,128.691925 
	C144.229874,126.722076 150.033066,125.002602 155.588715,122.688728 
	C158.935425,121.294853 161.896957,118.976089 165.341049,116.843925 
	C165.341049,116.843925 165.722885,116.794617 166.469666,116.959038 
	C169.023148,115.092491 171.576630,113.225952 174.372620,111.003334 
	C174.372620,111.003334 174.760559,110.815948 175.429016,110.960388 
	C175.977005,110.357277 176.524994,109.754166 177.281250,108.839478 
	C177.281250,108.839478 177.616592,108.672142 178.322617,108.845741 
	C179.571686,107.597710 180.820755,106.349678 182.024582,105.007309 
	C182.024582,105.007309 182.104980,105.074234 182.820877,105.056572 
	C183.787323,103.920403 184.753769,102.784241 185.946426,101.148567 
	C186.355499,100.798828 186.764572,100.449089 187.858749,100.075508 
	C189.840744,97.300018 191.822754,94.524529 193.870331,91.366898 
	C193.870331,91.366898 194.058868,91.028091 194.816360,90.825356 
	C195.266342,86.701378 195.716339,82.577408 196.775909,78.276154 
	C197.198868,78.270393 197.621826,78.264641 198.485046,78.693130 
	C202.142014,75.960083 201.771362,74.321114 196.999420,71.999695 
	C196.999420,71.999695 196.980682,72.023865 196.951981,71.333656 
	C193.513779,68.657227 190.075577,65.980789 186.153320,63.059532 
	C185.793213,62.656384 185.433105,62.253235 185.038971,61.164604 
	C183.630096,60.174847 182.221237,59.185085 180.996338,57.999283 
	C180.996338,57.999283 180.808029,58.191879 180.875397,57.498783 
	C177.801605,55.092560 174.727798,52.686337 171.155167,50.071274 
	C170.790573,49.679798 170.425980,49.288322 170.019897,48.205803 
	C166.497498,44.011780 165.784027,44.065308 162.552933,49.184288 
	C162.138046,49.538414 161.723160,49.892536 160.554916,50.128269 
	C156.045837,53.012470 155.753845,54.223160 158.964157,57.016647 
	C158.964157,57.016647 158.919327,57.116886 158.876221,57.861614 
	C158.174973,58.632496 157.473724,59.403374 156.205429,59.905262 
	C155.161652,58.885353 154.117874,57.865448 153.045929,56.165318 
	C150.603134,54.219528 148.160339,52.273739 145.826370,50.173485 
	C145.826370,50.173485 145.671753,50.282093 145.794815,49.592415 
	C144.551422,48.712383 143.308029,47.832352 142.008133,47.002834 
	C142.008133,47.002834 142.044876,46.936790 142.013626,46.259327 
	C140.688126,45.126148 139.362625,43.992966 137.877869,42.203381 
	C136.908676,41.808613 135.939499,41.413841 134.393524,40.805641 
	C133.580795,39.894978 132.768066,38.984314 131.975830,37.366215 
	C132.012787,36.661133 132.049744,35.956051 132.940857,35.159565 
	C134.937561,35.017269 136.934280,34.874973 139.726761,34.989754 
	C141.834167,34.892342 143.941574,34.794930 146.909073,34.762661 
	C148.344574,34.833363 149.780090,34.904064 151.874146,35.248436 
	C153.907928,35.378262 155.941711,35.508083 158.240524,36.249649 
	C161.282608,36.815781 164.324692,37.381916 167.366791,37.948048 
	C167.495895,37.265911 167.625000,36.583775 167.754105,35.901638 
	C164.431870,35.041489 161.109634,34.181335 157.011444,33.153381 
	C151.972061,32.271606 146.932678,31.389832 141.259567,30.320307 
	C140.820923,30.278337 140.382263,30.236366 139.621109,29.444178 
	C136.730453,29.426167 133.839783,29.408155 129.790878,29.315172 
	C129.044937,29.481602 128.298996,29.648031 127.579483,29.863705 
	C127.579483,29.863705 127.535728,29.948439 127.328125,29.347157 
	C126.917343,29.276617 126.506554,29.206076 125.472176,29.083046 
z"/>
<path fill="#183A77" opacity="1.000000" stroke="none" 
	d="
M125.473244,131.496841 
	C124.854454,131.535416 124.235657,131.574005 123.017693,131.525421 
	C119.628433,132.044388 116.838341,132.650528 114.048256,133.256668 
	C113.002548,133.284821 111.956848,133.312973 110.076706,133.292862 
	C99.451523,133.300659 89.660782,133.356720 79.870033,133.412781 
	C79.446907,133.339844 79.023788,133.266907 78.054764,132.959045 
	C75.330276,132.412415 73.151688,132.100693 70.973099,131.788971 
	C70.647301,131.700470 70.321495,131.611969 69.568466,131.268890 
	C68.370636,130.896530 67.600021,130.778778 66.829414,130.661026 
	C65.882538,130.393967 64.935661,130.126892 63.464951,129.515610 
	C61.307961,128.732269 59.674816,128.293121 57.806129,127.624710 
	C56.563103,127.035553 55.555618,126.675659 54.548134,126.315765 
	C54.398331,112.430809 54.246113,98.545876 54.101498,84.660866 
	C54.081379,82.729111 54.098724,80.796959 54.098724,78.548157 
	C51.927021,78.392677 50.317570,78.277458 48.292915,77.739914 
	C47.736214,76.831116 47.594723,76.344643 47.453232,75.858170 
	C47.905701,75.459900 48.358170,75.061630 49.267368,74.358559 
	C50.734013,72.993607 51.743923,71.933456 52.753834,70.873306 
	C53.368931,70.357277 53.984032,69.841248 55.101479,69.080750 
	C57.529125,66.979568 59.454430,65.122864 61.379734,63.266159 
	C61.687984,63.219234 61.930042,63.067036 62.525085,62.526958 
	C65.411522,59.972721 67.878792,57.701088 70.667770,55.316246 
	C74.652176,52.387589 78.314888,49.572136 82.184906,46.987682 
	C82.930771,47.475513 83.469322,47.732342 84.156540,48.242249 
	C85.097931,49.062340 85.890671,49.629360 86.787537,50.519058 
	C87.958000,52.036892 89.024338,53.232048 90.266243,54.623985 
	C84.654381,59.742447 79.276276,64.647697 73.898178,69.552948 
	C74.151161,70.073616 74.404137,70.594284 74.657120,71.114944 
	C76.562828,70.712402 78.972031,70.908592 80.286613,69.803116 
	C85.817291,65.152161 91.020996,60.112362 96.636230,55.112576 
	C97.943192,53.983814 98.958275,52.957359 100.290207,51.936615 
	C101.104156,51.322273 101.601250,50.702225 102.053093,50.042400 
	C102.007835,50.002625 102.080574,50.098602 102.393867,50.063911 
	C103.217934,49.403427 103.728699,48.777630 104.526176,48.006020 
	C106.178055,46.510178 107.543221,45.160145 109.221466,43.805424 
	C110.007843,43.190121 110.481140,42.579514 110.976685,41.984772 
	C110.998940,42.000633 110.969612,41.954624 111.282501,41.941689 
	C112.104591,41.322353 112.613785,40.715954 113.074806,40.052284 
	C113.026634,39.995018 113.102371,40.123714 113.416824,40.097900 
	C114.233925,39.431904 114.736580,38.791714 115.508759,38.019875 
	C116.588074,37.032463 117.397858,36.176701 118.508133,35.306080 
	C119.206711,34.865314 119.604805,34.439407 120.383026,33.896782 
	C122.493599,33.569901 124.224030,33.359741 126.016373,33.378399 
	C126.249260,33.917583 126.511841,34.067356 127.029953,34.351746 
	C128.781036,35.789196 130.368179,36.931423 131.955338,38.073647 
	C132.768066,38.984314 133.580795,39.894978 134.764526,41.218201 
	C136.093918,42.407948 137.052292,43.185135 138.219513,44.212631 
	C139.633865,45.287552 140.839371,46.112171 142.044876,46.936790 
	C142.044876,46.936790 142.008133,47.002834 142.071014,47.301636 
	C143.313187,48.494324 144.492462,49.388206 145.671753,50.282089 
	C145.671753,50.282093 145.826370,50.173485 145.824463,50.580299 
	C148.239731,52.939926 150.656921,54.892735 153.074097,56.845543 
	C154.117874,57.865448 155.161652,58.885353 156.561188,60.370930 
	C159.798904,63.355137 162.680878,65.873672 165.691238,68.651436 
	C167.046066,69.361404 168.272491,69.812149 169.857742,70.366493 
	C170.465027,70.454208 170.713501,70.438324 171.163818,70.641510 
	C171.858917,70.149849 172.352173,69.439110 172.845444,68.728378 
	C171.532166,67.864067 170.218903,66.999756 168.748505,65.881866 
	C167.817383,65.007072 167.043396,64.385849 166.182739,63.437901 
	C163.703827,61.113083 161.311569,59.114986 158.919327,57.116886 
	C158.919327,57.116886 158.964157,57.016647 158.896530,56.709801 
	C159.655365,54.350861 160.481827,52.298763 161.308273,50.246666 
	C161.723160,49.892536 162.138046,49.538414 163.109100,48.961365 
	C165.797318,48.791245 167.929352,48.844048 170.061386,48.896851 
	C170.425980,49.288322 170.790573,49.679798 171.484344,50.505489 
	C174.811691,53.357098 177.809860,55.774490 180.808029,58.191879 
	C180.808029,58.191879 180.996338,57.999283 180.970596,58.420235 
	C182.320892,59.844154 183.696945,60.847122 185.072983,61.850090 
	C185.433105,62.253235 185.793213,62.656384 186.512756,63.496078 
	C190.241699,66.629700 193.611191,69.326782 196.980682,72.023865 
	C196.980682,72.023865 196.999420,71.999695 197.036774,72.348137 
	C197.397675,74.550682 197.721237,76.404785 198.044800,78.258888 
	C197.621826,78.264641 197.198868,78.270393 196.066681,78.266495 
	C194.924591,82.513924 194.491730,86.771011 194.058868,91.028091 
	C194.058868,91.028091 193.870331,91.366898 193.514709,91.652161 
	C191.163956,94.658073 189.168808,97.378716 187.173660,100.099350 
	C186.764572,100.449089 186.355499,100.798828 185.506104,101.468964 
	C184.078857,102.884315 183.091919,103.979271 182.104980,105.074234 
	C182.104980,105.074234 182.024582,105.007309 181.713776,105.045822 
	C180.140839,106.280266 178.878708,107.476204 177.616592,108.672142 
	C177.616592,108.672142 177.281250,108.839478 176.862427,108.986717 
	C175.882599,109.694618 175.321579,110.255287 174.760559,110.815948 
	C174.760559,110.815948 174.372620,111.003334 173.907776,111.155243 
	C170.869598,113.136314 168.296234,114.965462 165.722885,116.794617 
	C165.722885,116.794617 165.341049,116.843925 164.820099,116.930695 
	C160.243439,118.865150 156.223572,120.797203 152.122589,122.538185 
	C147.465485,124.515259 142.735809,126.321419 138.037689,128.201874 
	C137.610870,128.250259 137.184036,128.298630 136.085297,128.356262 
	C132.099991,129.409302 128.786621,130.453079 125.473244,131.496841 
M119.808731,76.521736 
	C121.084183,75.443222 122.229118,73.717659 123.663750,73.428261 
	C126.219818,72.912651 128.990814,73.525406 131.589600,73.127968 
	C132.638931,72.967491 133.471878,71.392227 134.403305,70.460815 
	C133.475906,69.774704 132.600220,68.601807 131.611084,68.496696 
	C128.982422,68.217384 126.304543,68.373878 123.646690,68.401062 
	C113.055969,68.509354 114.554619,67.138252 114.472450,77.746719 
	C114.406822,86.219032 114.366173,94.694939 114.586586,103.162163 
	C114.617165,104.337029 116.210999,105.471199 117.081139,106.624199 
	C117.980789,105.507149 119.333870,104.510109 119.669090,103.243660 
	C120.121490,101.534531 119.795731,99.618141 119.795456,97.790695 
	C119.794144,89.141518 119.272751,90.000244 127.537849,89.912376 
	C129.466705,89.891876 132.511108,90.858643 132.189499,87.397720 
	C132.109375,86.535400 129.250031,85.359489 127.636848,85.308098 
	C119.622871,85.052765 119.762451,86.448601 119.808731,76.521736 
z"/>
<path fill="#3E82B1" opacity="1.000000" stroke="none" 
	d="
M85.018906,138.158142 
	C87.584679,138.275925 90.150452,138.393707 93.381912,138.799240 
	C98.512573,138.887390 102.977539,138.687775 107.442513,138.488159 
	C109.025108,138.418167 110.607712,138.348175 112.872482,138.440506 
	C116.365303,138.037018 119.175949,137.471207 121.986588,136.905396 
	C123.659317,136.779755 125.332054,136.654129 127.779160,136.580322 
	C132.172318,135.563248 135.791077,134.494324 139.409851,133.425400 
	C140.345413,133.288513 141.280960,133.151627 142.865936,132.985382 
	C144.009338,132.623383 144.503326,132.290756 144.997314,131.958145 
	C145.403717,131.875534 145.810104,131.792908 146.809998,131.721313 
	C148.064697,131.305191 148.725937,130.878021 149.387177,130.450867 
	C150.016418,130.295303 150.645676,130.139740 151.921753,129.977509 
	C153.498154,129.451080 154.427689,128.931335 155.357224,128.411575 
	C155.994934,128.277206 156.632645,128.142838 157.922546,127.929642 
	C160.535400,126.793106 162.496063,125.735405 164.456726,124.677704 
	C165.048508,124.401482 165.640305,124.125259 166.860992,123.789429 
	C169.388824,122.542435 171.287750,121.355049 173.186676,120.167648 
	C173.186676,120.167648 173.570786,120.056740 174.106567,119.988976 
	C177.835480,117.682671 181.028625,115.444122 184.221771,113.205582 
	C186.692017,111.322479 189.162262,109.439369 192.141479,107.258286 
	C193.108521,106.314079 193.566574,105.667831 194.024628,105.021584 
	C194.024628,105.021584 194.000000,105.000000 194.343109,104.981491 
	C195.464142,103.979507 196.242096,102.996033 197.020020,102.012558 
	C198.691879,99.977982 200.363724,97.943413 202.462204,95.497787 
	C203.233505,94.374939 203.578171,93.663147 203.922836,92.951355 
	C204.540573,91.840401 205.158310,90.729439 206.124207,89.170586 
	C206.640366,88.142998 206.808334,87.563309 206.976318,86.983620 
	C207.081848,86.625313 207.187378,86.267006 207.632019,85.492714 
	C208.172531,84.324364 208.373901,83.572006 208.575287,82.819649 
	C208.698761,82.117676 208.822220,81.415695 209.256851,80.074249 
	C209.361984,75.957855 209.155960,72.480927 208.949936,69.004005 
	C208.911545,68.586380 208.873138,68.168762 208.895111,67.185677 
	C209.364853,66.509056 210.002502,66.173889 210.147736,66.321899 
	C211.391876,67.589821 212.546860,68.945221 213.728485,70.274467 
	C213.728485,70.274467 213.823303,70.653427 213.897186,71.187668 
	C214.982315,73.481720 215.993546,75.241531 217.004791,77.001343 
	C217.077545,77.410141 217.150284,77.818932 217.225143,78.889565 
	C217.834229,81.366402 218.441208,83.181412 219.048187,84.996422 
	C219.071838,85.721870 219.095505,86.447319 219.049805,87.972412 
	C219.065948,90.886238 219.151489,93.000435 219.237030,95.114624 
	C219.186676,95.534233 219.136322,95.953835 218.827209,96.945938 
	C217.105423,102.045242 215.642395,106.572052 214.179352,111.098862 
	C213.122787,112.772919 212.066223,114.446983 210.572021,116.519623 
	C209.750290,117.608582 209.366196,118.298950 208.982101,118.989319 
	C205.945984,121.983505 202.909851,124.977692 199.228394,128.041260 
	C198.037338,128.705627 197.491638,129.300629 196.945938,129.895615 
	C194.900894,131.218674 192.855835,132.541718 190.195007,133.971237 
	C189.005539,134.602066 188.431839,135.126419 187.858124,135.650757 
	C187.544937,135.842072 187.231735,136.033371 186.320023,136.205429 
	C185.115082,136.719879 184.508682,137.253586 183.902267,137.787292 
	C183.570648,137.936569 183.239014,138.085861 182.274765,138.201797 
	C179.698135,139.236572 177.754120,140.304718 175.810104,141.372849 
	C175.409790,141.512650 175.009491,141.652466 174.078552,141.607025 
	C171.314133,142.472763 169.080338,143.523758 166.846558,144.574768 
	C165.901459,144.774048 164.956375,144.973328 163.310730,145.117676 
	C161.681778,145.524109 160.753372,145.985504 159.824966,146.446884 
	C159.412888,146.550064 159.000793,146.653229 158.028732,146.527039 
	C155.641525,146.894730 153.814301,147.491806 151.987076,148.088867 
	C151.327713,148.164917 150.668350,148.240967 149.247040,148.199692 
	C146.273041,148.578018 144.060974,149.073669 141.848907,149.569305 
	C140.813873,149.667770 139.778824,149.766220 138.064880,149.580750 
	C134.915588,149.599396 132.445175,149.901962 129.974777,150.204559 
	C127.618774,150.219254 125.262772,150.233948 122.203323,149.903687 
	C118.343582,149.640991 115.187286,149.723251 112.030991,149.805511 
	C111.304657,149.794647 110.578323,149.783798 109.346123,149.345520 
	C106.445862,148.718979 104.051460,148.519882 101.657066,148.320801 
	C100.680008,148.261017 99.702957,148.201233 98.183014,147.803802 
	C96.107941,147.229156 94.575760,146.992111 93.043579,146.755081 
	C92.619972,146.735245 92.196365,146.715408 91.318024,146.291504 
	C84.165855,143.526535 77.461731,141.184326 70.776604,138.789078 
	C69.436089,138.308792 67.625137,137.786240 69.982285,136.121735 
	C73.656021,136.455307 77.329758,136.788895 81.558594,137.385681 
	C83.082100,137.818619 84.050507,137.988388 85.018906,138.158142 
z"/>
<path fill="#4286B3" opacity="1.000000" stroke="none" 
	d="
M95.473198,30.435158 
	C96.098495,30.406395 96.723793,30.377634 97.957878,30.484888 
	C102.371994,30.050268 106.177322,29.479633 109.982651,28.908998 
	C112.037231,28.909729 114.091805,28.910458 116.491608,29.241051 
	C115.839851,31.016600 114.842865,32.462288 113.562630,34.077736 
	C110.542686,35.904613 107.805984,37.561733 104.730545,39.136131 
	C103.609123,39.426414 102.826447,39.799419 101.672066,40.168755 
	C100.579796,40.326702 99.859222,40.488319 98.849289,40.522179 
	C97.898010,40.811710 97.236092,41.228996 96.252182,41.672897 
	C95.307083,41.863476 94.683990,42.027435 93.748093,42.134617 
	C92.771667,42.528637 92.108040,42.979443 91.098572,43.467083 
	C89.852493,43.719910 88.952263,43.935905 87.697365,44.123680 
	C85.557617,44.071400 83.772545,44.047337 81.856903,43.904854 
	C81.726326,43.786434 81.392326,43.673630 81.238899,43.360153 
	C79.658058,43.316044 78.230644,43.585403 76.512032,44.009850 
	C73.465454,46.751129 70.710075,49.337326 67.639511,51.952305 
	C66.829918,52.600918 66.335503,53.220753 65.838043,53.851608 
	C65.835007,53.862625 65.830986,53.851543 65.529037,53.905411 
	C64.701469,54.552971 64.175858,55.146667 63.650253,55.740372 
	C61.612400,57.061863 59.574543,58.383354 56.984360,59.924423 
	C55.877926,60.710663 55.323822,61.277325 54.769718,61.843987 
	C53.583351,62.662865 52.396980,63.481743 50.743210,64.631622 
	C49.769287,65.587059 49.262756,66.211494 48.756226,66.835938 
	C46.866898,68.592628 44.977573,70.349319 42.635483,72.512207 
	C41.758907,73.594627 41.335094,74.270851 40.911278,74.947075 
	C40.553829,75.318520 40.196381,75.689972 39.441177,76.450325 
	C38.029041,78.559853 37.014668,80.280464 36.000298,82.001083 
	C36.000298,82.001083 35.816097,82.313805 35.475777,82.641960 
	C34.265545,85.357765 33.395634,87.745422 32.525719,90.133072 
	C32.391514,90.544434 32.257313,90.955788 31.817146,91.881638 
	C31.419998,93.289886 31.328814,94.183655 31.237629,95.077415 
	C31.126259,97.070808 31.014891,99.064201 30.576756,101.516846 
	C29.809610,102.012352 29.369230,102.048607 28.928848,102.084869 
	C28.928848,102.084869 28.835503,101.623268 28.848835,101.100685 
	C28.431126,99.929428 28.000080,99.280746 27.569035,98.632072 
	C27.510529,98.268967 27.452024,97.905869 27.545944,96.965195 
	C27.522840,90.923637 27.347311,85.459663 27.171780,79.995682 
	C27.271122,79.340965 27.370461,78.686241 27.788330,77.543930 
	C28.318516,76.320236 28.530172,75.584137 28.741829,74.848045 
	C28.900780,74.213066 29.059731,73.578087 29.593424,72.505531 
	C30.219051,71.325417 30.469936,70.582870 30.720821,69.840332 
	C32.128059,67.505981 33.535301,65.171623 35.430168,62.462738 
	C36.318966,61.429401 36.720139,60.770599 37.121307,60.111797 
	C48.230961,47.533878 62.277321,39.766407 78.863525,34.984863 
	C80.024231,34.588047 80.504272,34.250683 80.984306,33.913322 
	C81.410370,33.855648 81.836426,33.797974 82.903366,33.739487 
	C85.033203,33.176872 86.522171,32.615078 88.011131,32.053284 
	C88.737755,31.987293 89.464386,31.921307 90.899788,31.863155 
	C92.896774,31.392378 94.184990,30.913767 95.473198,30.435158 
z"/>
<path fill="#7AAECC" opacity="1.000000" stroke="none" 
	d="
M69.798676,135.797058 
	C67.625137,137.786240 69.436089,138.308792 70.776604,138.789078 
	C77.461731,141.184326 84.165855,143.526535 91.014458,146.193085 
	C88.169006,145.905518 84.998489,145.747803 82.209572,144.634338 
	C74.927864,141.727127 67.813171,138.401581 60.326900,134.797073 
	C60.371052,133.833603 60.720177,133.315903 61.069309,132.798203 
	C63.917900,133.689606 66.766487,134.581009 69.798676,135.797058 
z"/>
<path fill="#BDC9D9" opacity="1.000000" stroke="none" 
	d="
M79.967621,133.796265 
	C89.660782,133.356720 99.451523,133.300659 109.693008,133.378250 
	C103.614304,134.269363 97.100128,135.334167 90.549240,135.659271 
	C87.087555,135.831039 83.561951,134.714584 79.967621,133.796265 
z"/>
<path fill="#4185B3" opacity="1.000000" stroke="none" 
	d="
M151.215591,34.974770 
	C149.780090,34.904064 148.344574,34.833363 146.330750,34.334610 
	C143.478607,34.181934 141.204788,34.457306 138.930984,34.732674 
	C136.934280,34.874973 134.937561,35.017269 132.253998,35.012508 
	C130.690842,34.256584 129.814529,33.647717 128.870789,32.590904 
	C128.386597,31.366791 127.969833,30.590624 127.553070,29.814459 
	C128.298996,29.648031 129.044937,29.481602 130.546814,29.742559 
	C134.183044,30.178097 137.063339,30.186247 139.943619,30.194397 
	C140.382263,30.236366 140.820923,30.278337 141.727020,30.736206 
	C145.201508,32.426327 148.208557,33.700550 151.215591,34.974770 
z"/>
<path fill="#BDC9D9" opacity="1.000000" stroke="none" 
	d="
M138.284317,128.446899 
	C142.735809,126.321419 147.465485,124.515259 152.122589,122.538185 
	C156.223572,120.797203 160.243439,118.865150 164.665344,117.045212 
	C161.896957,118.976089 158.935425,121.294853 155.588715,122.688728 
	C150.033066,125.002602 144.229874,126.722076 138.284317,128.446899 
z"/>
<path fill="#B5C3D5" opacity="1.000000" stroke="none" 
	d="
M165.562851,68.392212 
	C162.680878,65.873672 159.798904,63.355137 156.844696,60.505424 
	C157.473724,59.403374 158.174973,58.632496 158.897766,57.489250 
	C161.311569,59.114986 163.703827,61.113083 165.860031,63.545700 
	C165.795029,65.272690 165.966064,66.565155 165.994263,67.992050 
	C165.851410,68.126465 165.562851,68.392212 165.562851,68.392212 
z"/>
<path fill="#D1E4EE" opacity="1.000000" stroke="none" 
	d="
M60.981663,132.476166 
	C60.720177,133.315903 60.371052,133.833603 60.001610,134.681564 
	C56.960880,133.391617 53.940460,131.771393 50.231804,129.781998 
	C52.173725,128.369507 53.139797,127.666801 54.327003,126.639938 
	C55.555618,126.675659 56.563103,127.035553 57.784431,127.899048 
	C57.997597,128.585968 57.996918,128.769287 57.996239,128.952591 
	C58.962166,130.019775 59.928093,131.086960 60.981663,132.476166 
z"/>
<path fill="#AACDE0" opacity="1.000000" stroke="none" 
	d="
M26.843113,80.206390 
	C27.347311,85.459663 27.522840,90.923637 27.507263,96.692024 
	C24.223034,91.606636 24.253595,86.065788 26.843113,80.206390 
z"/>
<path fill="#6AA4C6" opacity="1.000000" stroke="none" 
	d="
M151.544861,35.111603 
	C148.208557,33.700550 145.201508,32.426327 142.043884,30.830082 
	C146.932678,31.389832 151.972061,32.271606 157.469208,33.616127 
	C157.943130,34.598553 157.959320,35.118229 157.975494,35.637909 
	C155.941711,35.508083 153.907928,35.378262 151.544861,35.111603 
z"/>
<path fill="#B1CEDF" opacity="1.000000" stroke="none" 
	d="
M158.108002,35.943779 
	C157.959320,35.118229 157.943130,34.598553 157.857178,33.700027 
	C161.109634,34.181335 164.431870,35.041489 167.754105,35.901638 
	C167.625000,36.583775 167.495895,37.265911 167.366791,37.948048 
	C164.324692,37.381916 161.282608,36.815781 158.108002,35.943779 
z"/>
<path fill="#B3D2E3" opacity="1.000000" stroke="none" 
	d="
M213.795868,69.905548 
	C212.546860,68.945221 211.391876,67.589821 210.147736,66.321899 
	C210.002502,66.173889 209.364853,66.509056 208.821838,66.879395 
	C207.782562,65.415680 206.876953,63.692780 205.971344,61.969879 
	C210.705383,62.763012 212.552063,65.903488 213.795868,69.905548 
z"/>
<path fill="#B5C3D5" opacity="1.000000" stroke="none" 
	d="
M194.437622,90.926727 
	C194.491730,86.771011 194.924591,82.513924 195.761887,78.355133 
	C195.716339,82.577408 195.266342,86.701378 194.437622,90.926727 
z"/>
<path fill="#B5C3D5" opacity="1.000000" stroke="none" 
	d="
M196.966339,71.678757 
	C193.611191,69.326782 190.241699,66.629700 186.754791,63.618492 
	C190.075577,65.980789 193.513779,68.657227 196.966339,71.678757 
z"/>
<path fill="#B3D2E3" opacity="1.000000" stroke="none" 
	d="
M214.515533,111.022148 
	C215.642395,106.572052 217.105423,102.045242 218.833282,97.263168 
	C217.682648,101.653748 216.267181,106.299591 214.515533,111.022148 
z"/>
<path fill="#BBD7E6" opacity="1.000000" stroke="none" 
	d="
M106.963287,138.324387 
	C102.977539,138.687775 98.512573,138.887390 93.801453,138.789062 
	C97.864891,138.380966 102.174477,138.270798 106.963287,138.324387 
z"/>
<path fill="#B5C3D5" opacity="1.000000" stroke="none" 
	d="
M180.841705,57.845329 
	C177.809860,55.774490 174.811691,53.357098 171.733765,50.609909 
	C174.727798,52.686337 177.801605,55.092560 180.841705,57.845329 
z"/>
<path fill="#C7DEEA" opacity="1.000000" stroke="none" 
	d="
M109.700989,28.632607 
	C106.177322,29.479633 102.371994,30.050268 98.266121,30.428417 
	C101.783493,29.609358 105.601410,28.982786 109.700989,28.632607 
z"/>
<path fill="#C7DEEA" opacity="1.000000" stroke="none" 
	d="
M113.845879,33.907974 
	C114.842865,32.462288 115.839851,31.016600 116.932190,29.247299 
	C117.854362,29.876480 118.681198,30.829273 119.761200,32.295017 
	C120.010536,33.209812 120.006714,33.611656 120.002892,34.013496 
	C119.604805,34.439407 119.206711,34.865314 118.429581,34.951454 
	C116.648994,34.377113 115.247437,34.142544 113.845879,33.907974 
z"/>
<path fill="#BDC9D9" opacity="1.000000" stroke="none" 
	d="
M125.891006,131.664215 
	C128.786621,130.453079 132.099991,129.409302 135.787674,128.482819 
	C132.877579,129.677261 129.593170,130.754410 125.891006,131.664215 
z"/>
<path fill="#B3D2E3" opacity="1.000000" stroke="none" 
	d="
M183.853561,113.156815 
	C181.028625,115.444122 177.835480,117.682671 174.283188,119.895370 
	C177.111145,117.615707 180.298248,115.361877 183.853561,113.156815 
z"/>
<path fill="#B3D2E3" opacity="1.000000" stroke="none" 
	d="
M208.678879,69.299866 
	C209.155960,72.480927 209.361984,75.957855 209.273361,79.717339 
	C208.788406,76.531845 208.598114,73.063782 208.678879,69.299866 
z"/>
<path fill="#BDC9D9" opacity="1.000000" stroke="none" 
	d="
M114.333694,133.512604 
	C116.838341,132.650528 119.628433,132.044388 122.720184,131.615479 
	C120.220955,132.451309 117.420044,133.109924 114.333694,133.512604 
z"/>
<path fill="#C4CFDD" opacity="1.000000" stroke="none" 
	d="
M70.346062,55.429459 
	C67.878792,57.701088 65.411522,59.972721 62.608395,62.323967 
	C63.523346,60.511562 64.774162,58.619541 66.012039,56.364708 
	C65.999092,56.001892 66.007019,56.021400 66.348450,56.028648 
	C67.742256,55.631798 68.794624,55.227699 69.973648,54.973511 
	C70.100304,55.123421 70.346062,55.429459 70.346062,55.429459 
z"/>
<path fill="#B5C3D5" opacity="1.000000" stroke="none" 
	d="
M187.516205,100.087433 
	C189.168808,97.378716 191.163956,94.658073 193.481934,91.843231 
	C191.822754,94.524529 189.840744,97.300018 187.516205,100.087433 
z"/>
<path fill="#7AAECC" opacity="1.000000" stroke="none" 
	d="
M112.321396,150.070480 
	C115.187286,149.723251 118.343582,149.640991 121.763016,149.868011 
	C118.888031,150.230026 115.749916,150.282745 112.321396,150.070480 
z"/>
<path fill="#BBD7E6" opacity="1.000000" stroke="none" 
	d="
M138.992935,133.294128 
	C135.791077,134.494324 132.172318,135.563248 128.180664,136.468719 
	C131.397202,135.257782 134.986603,134.210327 138.992935,133.294128 
z"/>
<path fill="#B6C3D5" opacity="1.000000" stroke="none" 
	d="
M153.060013,56.505432 
	C150.656921,54.892735 148.239731,52.939926 145.770050,50.657532 
	C148.160339,52.273739 150.603134,54.219528 153.060013,56.505432 
z"/>
<path fill="#B5C3D5" opacity="1.000000" stroke="none" 
	d="
M170.040649,48.551327 
	C167.929352,48.844048 165.797318,48.791245 163.274597,48.739807 
	C165.784027,44.065308 166.497498,44.011780 170.040649,48.551327 
z"/>
<path fill="#BDC9D9" opacity="1.000000" stroke="none" 
	d="
M166.096283,116.876831 
	C168.296234,114.965462 170.869598,113.136314 173.786530,111.333282 
	C171.576630,113.225952 169.023148,115.092491 166.096283,116.876831 
z"/>
<path fill="#6AA4C6" opacity="1.000000" stroke="none" 
	d="
M139.782364,29.819288 
	C137.063339,30.186247 134.183044,30.178097 131.125946,29.780045 
	C133.839783,29.408155 136.730453,29.426167 139.782364,29.819288 
z"/>
<path fill="#BBD7E6" opacity="1.000000" stroke="none" 
	d="
M121.726868,136.642151 
	C119.175949,137.471207 116.365303,138.037018 113.268021,138.393188 
	C115.809967,137.582001 118.638557,136.980438 121.726868,136.642151 
z"/>
<path fill="#B5C3D5" opacity="1.000000" stroke="none" 
	d="
M198.264923,78.476013 
	C197.721237,76.404785 197.397675,74.550682 197.025055,72.358459 
	C201.771362,74.321114 202.142014,75.960083 198.264923,78.476013 
z"/>
<path fill="#C1CCDB" opacity="1.000000" stroke="none" 
	d="
M120.383026,33.896778 
	C120.006714,33.611656 120.010536,33.209812 120.033096,32.510723 
	C121.146004,31.496340 122.240173,30.779205 123.987976,30.032314 
	C125.075249,30.021399 125.508911,30.040241 125.957794,30.445198 
	C125.966835,31.604069 125.960648,32.376827 125.954468,33.149582 
	C124.224030,33.359741 122.493599,33.569901 120.383026,33.896778 
z"/>
<path fill="#BDC9D9" opacity="1.000000" stroke="none" 
	d="
M71.133453,132.128830 
	C73.151688,132.100693 75.330276,132.412415 77.732864,132.990021 
	C75.735847,132.993469 73.514824,132.731079 71.133453,132.128830 
z"/>
<path fill="#7AAECC" opacity="1.000000" stroke="none" 
	d="
M130.277390,150.435303 
	C132.445175,149.901962 134.915588,149.599396 137.674744,149.547699 
	C135.502319,150.087753 133.041168,150.376907 130.277390,150.435303 
z"/>
<path fill="#C4CFDD" opacity="1.000000" stroke="none" 
	d="
M61.020535,63.182148 
	C59.454430,65.122864 57.529125,66.979568 55.267391,68.823502 
	C56.841087,66.906525 58.751209,65.002335 61.020535,63.182148 
z"/>
<path fill="#B5C3D5" opacity="1.000000" stroke="none" 
	d="
M160.931595,50.187469 
	C160.481827,52.298763 159.655365,54.350861 158.853119,56.743416 
	C155.753845,54.223160 156.045837,53.012470 160.931595,50.187469 
z"/>
<path fill="#7AAECC" opacity="1.000000" stroke="none" 
	d="
M167.213928,144.676071 
	C169.080338,143.523758 171.314133,142.472763 173.761566,141.645477 
	C171.843903,142.838608 169.712616,143.807999 167.213928,144.676071 
z"/>
<path fill="#B3D2E3" opacity="1.000000" stroke="none" 
	d="
M219.578964,94.991318 
	C219.151489,93.000435 219.065948,90.886238 219.100845,88.331879 
	C219.454483,90.217140 219.687683,92.542580 219.578964,94.991318 
z"/>
<path fill="#7AAECC" opacity="1.000000" stroke="none" 
	d="
M101.874641,148.629517 
	C104.051460,148.519882 106.445862,148.718979 108.991638,149.261841 
	C106.792747,149.383148 104.442482,149.160706 101.874641,148.629517 
z"/>
<path fill="#7AAECC" opacity="1.000000" stroke="none" 
	d="
M142.254898,149.708282 
	C144.060974,149.073669 146.273041,148.578018 148.914993,148.203186 
	C147.116882,148.831757 144.888885,149.339523 142.254898,149.708282 
z"/>
<path fill="#6AA4C6" opacity="1.000000" stroke="none" 
	d="
M139.328873,34.861214 
	C141.204788,34.457306 143.478607,34.181934 145.900696,34.302040 
	C143.941574,34.794930 141.834167,34.892342 139.328873,34.861214 
z"/>
<path fill="#C1CCDB" opacity="1.000000" stroke="none" 
	d="
M128.938217,33.038849 
	C129.814529,33.647717 130.690842,34.256584 131.826935,35.058212 
	C132.049744,35.956051 132.012787,36.661133 131.965576,37.719933 
	C130.368179,36.931423 128.781036,35.789196 127.300484,34.248100 
	C127.917458,33.579102 128.427841,33.308975 128.938217,33.038849 
z"/>
<path fill="#CADFEB" opacity="1.000000" stroke="none" 
	d="
M32.824226,90.004074 
	C33.395634,87.745422 34.265545,85.357765 35.449738,82.821548 
	C34.883591,85.073685 34.003159,87.474388 32.824226,90.004074 
z"/>
<path fill="#B3D2E3" opacity="1.000000" stroke="none" 
	d="
M164.107208,124.514633 
	C162.496063,125.735405 160.535400,126.793106 158.223724,127.804153 
	C159.834366,126.622192 161.796021,125.486877 164.107208,124.514633 
z"/>
<path fill="#B3D2E3" opacity="1.000000" stroke="none" 
	d="
M172.820618,120.121002 
	C171.287750,121.355049 169.388824,122.542435 167.143143,123.624802 
	C168.682449,122.371307 170.568497,121.222832 172.820618,120.121002 
z"/>
<path fill="#B3D2E3" opacity="1.000000" stroke="none" 
	d="
M217.242233,76.801849 
	C215.993546,75.241531 214.982315,73.481720 213.977325,71.365791 
	C215.148926,72.873909 216.314301,74.738136 217.242233,76.801849 
z"/>
<path fill="#7AAECC" opacity="1.000000" stroke="none" 
	d="
M176.144226,141.500381 
	C177.754120,140.304718 179.698135,139.236572 182.006439,138.255676 
	C180.406601,139.437912 178.442474,140.532913 176.144226,141.500381 
z"/>
<path fill="#7AAECC" opacity="1.000000" stroke="none" 
	d="
M152.245483,148.282837 
	C153.814301,147.491806 155.641525,146.894730 157.708740,146.518677 
	C156.133804,147.318726 154.318848,147.897766 152.245483,148.282837 
z"/>
<path fill="#B3D2E3" opacity="1.000000" stroke="none" 
	d="
M219.297180,84.777527 
	C218.441208,83.181412 217.834229,81.366402 217.320175,79.186279 
	C218.124130,80.733650 218.835159,82.646149 219.297180,84.777527 
z"/>
<path fill="#B1CEDF" opacity="1.000000" stroke="none" 
	d="
M128.870789,32.590904 
	C128.427841,33.308975 127.917458,33.579102 127.136551,33.952877 
	C126.511841,34.067356 126.249260,33.917583 126.016373,33.378399 
	C125.960648,32.376827 125.966835,31.604069 125.978729,30.423763 
	C125.984428,30.016214 126.026855,29.973909 126.404472,29.991024 
	C127.033295,29.988241 127.284508,29.968340 127.535728,29.948439 
	C127.535728,29.948439 127.579483,29.863705 127.566277,29.839081 
	C127.969833,30.590624 128.386597,31.366791 128.870789,32.590904 
z"/>
<path fill="#CADFEB" opacity="1.000000" stroke="none" 
	d="
M36.347076,81.957062 
	C37.014668,80.280464 38.029041,78.559853 39.346809,76.694435 
	C38.664753,78.337440 37.679306,80.125237 36.347076,81.957062 
z"/>
<path fill="#C7DEEA" opacity="1.000000" stroke="none" 
	d="
M87.821907,31.805107 
	C86.522171,32.615078 85.033203,33.176872 83.202690,33.616699 
	C84.451653,32.848797 86.042168,32.202862 87.821907,31.805107 
z"/>
<path fill="#7AAECC" opacity="1.000000" stroke="none" 
	d="
M93.215141,147.029434 
	C94.575760,146.992111 96.107941,147.229156 97.821716,147.737427 
	C96.464439,147.773712 94.925568,147.538742 93.215141,147.029434 
z"/>
<path fill="#B5C3D5" opacity="1.000000" stroke="none" 
	d="
M177.969604,108.758942 
	C178.878708,107.476204 180.140839,106.280266 181.736389,105.092987 
	C180.820755,106.349678 179.571686,107.597710 177.969604,108.758942 
z"/>
<path fill="#B5C3D5" opacity="1.000000" stroke="none" 
	d="
M185.055969,61.507347 
	C183.696945,60.847122 182.320892,59.844154 180.878601,58.518257 
	C182.221237,59.185085 183.630096,60.174847 185.055969,61.507347 
z"/>
<path fill="#CADFEB" opacity="1.000000" stroke="none" 
	d="
M31.257153,102.807503 
	C31.784824,104.126549 32.312496,105.445595 32.840168,106.764641 
	C32.204594,106.529572 31.569017,106.294510 30.970119,105.288567 
	C31.090250,103.947632 31.173700,103.377563 31.257153,102.807503 
z"/>
<path fill="#B6C3D5" opacity="1.000000" stroke="none" 
	d="
M142.029251,46.598061 
	C140.839371,46.112171 139.633865,45.287552 138.221634,43.936890 
	C138.022308,43.227161 138.029724,43.043476 138.037125,42.859787 
	C139.362625,43.992966 140.688126,45.126148 142.029251,46.598061 
z"/>
<path fill="#C7DEEA" opacity="1.000000" stroke="none" 
	d="
M95.092392,30.298512 
	C94.184990,30.913767 92.896774,31.392378 91.251434,31.764114 
	C92.166733,31.158783 93.439163,30.660326 95.092392,30.298512 
z"/>
<path fill="#BDC9D9" opacity="1.000000" stroke="none" 
	d="
M58.375999,129.022614 
	C57.996918,128.769287 57.997597,128.585968 58.019974,128.128311 
	C59.674816,128.293121 61.307961,128.732269 63.093224,129.495667 
	C61.748810,129.577499 60.252285,129.335068 58.375999,129.022614 
z"/>
<path fill="#B6C3D5" opacity="1.000000" stroke="none" 
	d="
M145.733276,49.937252 
	C144.492462,49.388206 143.313187,48.494324 142.099274,47.276382 
	C143.308029,47.832352 144.551422,48.712383 145.733276,49.937252 
z"/>
<path fill="#B5C3D5" opacity="1.000000" stroke="none" 
	d="
M182.462921,105.065399 
	C183.091919,103.979271 184.078857,102.884315 185.393005,101.718719 
	C184.753769,102.784241 183.787323,103.920403 182.462921,105.065399 
z"/>
<path fill="#C4CFDD" opacity="1.000000" stroke="none" 
	d="
M52.401062,70.867950 
	C51.743923,71.933456 50.734013,72.993607 49.397827,74.086502 
	C50.063797,73.033699 51.056042,71.948143 52.401062,70.867950 
z"/>
<path fill="#B3D2E3" opacity="1.000000" stroke="none" 
	d="
M196.678879,102.031158 
	C196.242096,102.996033 195.464142,103.979507 194.353912,104.993797 
	C194.793671,104.032997 195.565704,103.041382 196.678879,102.031158 
z"/>
<path fill="#AACDE0" opacity="1.000000" stroke="none" 
	d="
M31.193832,102.575218 
	C31.173700,103.377563 31.090250,103.947632 30.975273,104.954926 
	C30.248716,104.528572 29.553684,103.664970 28.893751,102.443123 
	C29.369230,102.048607 29.809610,102.012352 30.579521,101.945724 
	C30.909050,101.915359 31.130510,102.342934 31.193832,102.575218 
z"/>
<path fill="#B3D2E3" opacity="1.000000" stroke="none" 
	d="
M155.004425,128.289505 
	C154.427689,128.931335 153.498154,129.451080 152.232697,129.885834 
	C152.815063,129.256393 153.733337,128.711914 155.004425,128.289505 
z"/>
<path fill="#BBD7E6" opacity="1.000000" stroke="none" 
	d="
M84.815384,137.867554 
	C84.050507,137.988388 83.082100,137.818619 82.000496,137.370209 
	C82.795486,137.253372 83.703674,137.415176 84.815384,137.867554 
z"/>
<path fill="#C8D2E0" opacity="1.000000" stroke="none" 
	d="
M47.144356,75.870514 
	C47.594723,76.344643 47.736214,76.831116 47.853973,77.701485 
	C47.021263,77.727112 46.212284,77.368835 45.403309,77.010567 
	C45.880699,76.634659 46.358089,76.258759 47.144356,75.870514 
z"/>
<path fill="#7AAECC" opacity="1.000000" stroke="none" 
	d="
M160.150879,146.586121 
	C160.753372,145.985504 161.681778,145.524109 162.949646,145.158096 
	C162.351669,145.744095 161.414230,146.234726 160.150879,146.586121 
z"/>
<path fill="#C1CCDB" opacity="1.000000" stroke="none" 
	d="
M137.957489,42.531586 
	C138.029724,43.043476 138.022308,43.227161 138.012787,43.686584 
	C137.052292,43.185135 136.093918,42.407948 135.052917,41.324917 
	C135.939499,41.413841 136.908676,41.808613 137.957489,42.531586 
z"/>
<path fill="#CADFEB" opacity="1.000000" stroke="none" 
	d="
M31.538956,95.013718 
	C31.328814,94.183655 31.419998,93.289886 31.804119,92.207428 
	C32.011467,92.995834 31.925875,93.972931 31.538956,95.013718 
z"/>
<path fill="#AACDE0" opacity="1.000000" stroke="none" 
	d="
M36.774025,60.124611 
	C36.720139,60.770599 36.318966,61.429401 35.636505,62.195053 
	C35.712387,61.580414 36.069561,60.858917 36.774025,60.124611 
z"/>
<path fill="#CADFEB" opacity="1.000000" stroke="none" 
	d="
M55.099434,61.880272 
	C55.323822,61.277325 55.877926,60.710663 56.749321,60.162373 
	C56.520790,60.759350 55.974972,61.337955 55.099434,61.880272 
z"/>
<path fill="#CADFEB" opacity="1.000000" stroke="none" 
	d="
M64.040085,55.825790 
	C64.175858,55.146667 64.701469,54.552971 65.587204,54.264534 
	C65.967224,55.053661 65.987122,55.537529 66.007019,56.021400 
	C66.007019,56.021400 65.999092,56.001892 66.009583,56.005699 
	C65.490021,55.976746 64.959969,55.943981 64.040085,55.825790 
z"/>
<path fill="#AACDE0" opacity="1.000000" stroke="none" 
	d="
M27.424664,98.939957 
	C28.000080,99.280746 28.431126,99.929428 28.774391,100.877289 
	C28.217840,100.533600 27.749065,99.890717 27.424664,98.939957 
z"/>
<path fill="#7AAECC" opacity="1.000000" stroke="none" 
	d="
M184.208755,137.829620 
	C184.508682,137.253586 185.115082,136.719879 186.054932,136.282928 
	C185.763992,136.877090 185.139618,137.374512 184.208755,137.829620 
z"/>
<path fill="#CADFEB" opacity="1.000000" stroke="none" 
	d="
M49.111149,66.860947 
	C49.262756,66.211494 49.769287,65.587059 50.584320,64.897598 
	C50.417236,65.517044 49.941654,66.201500 49.111149,66.860947 
z"/>
<path fill="#7AAECC" opacity="1.000000" stroke="none" 
	d="
M188.168457,135.714233 
	C188.431839,135.126419 189.005539,134.602066 189.899567,134.125366 
	C189.639542,134.707901 189.059174,135.242813 188.168457,135.714233 
z"/>
<path fill="#B3D2E3" opacity="1.000000" stroke="none" 
	d="
M144.841766,131.734344 
	C144.503326,132.290756 144.009338,132.623383 143.204071,132.877213 
	C143.490601,132.369110 144.088409,131.939819 144.841766,131.734344 
z"/>
<path fill="#CADFEB" opacity="1.000000" stroke="none" 
	d="
M41.266407,74.923340 
	C41.335094,74.270851 41.758907,73.594627 42.468437,72.789474 
	C42.376610,73.406906 41.999073,74.153259 41.266407,74.923340 
z"/>
<path fill="#B3D2E3" opacity="1.000000" stroke="none" 
	d="
M203.589813,93.009468 
	C203.578171,93.663147 203.233505,94.374939 202.588684,95.190521 
	C202.611298,94.552071 202.934052,93.809830 203.589813,93.009468 
z"/>
<path fill="#B3D2E3" opacity="1.000000" stroke="none" 
	d="
M206.694611,87.008438 
	C206.808334,87.563309 206.640366,88.142998 206.183197,88.855804 
	C206.066986,88.337029 206.239944,87.685150 206.694611,87.008438 
z"/>
<path fill="#B3D2E3" opacity="1.000000" stroke="none" 
	d="
M193.696869,105.035446 
	C193.566574,105.667831 193.108521,106.314079 192.330429,106.987839 
	C192.463303,106.360008 192.916199,105.704659 193.696869,105.035446 
z"/>
<path fill="#B5C3D5" opacity="1.000000" stroke="none" 
	d="
M175.094788,110.888168 
	C175.321579,110.255287 175.882599,109.694618 176.758301,109.142502 
	C176.524994,109.754166 175.977005,110.357277 175.094788,110.888168 
z"/>
<path fill="#B3D2E3" opacity="1.000000" stroke="none" 
	d="
M208.272278,82.936096 
	C208.373901,83.572006 208.172531,84.324364 207.686707,85.217827 
	C207.591278,84.590134 207.780273,83.821342 208.272278,82.936096 
z"/>
<path fill="#C7DEEA" opacity="1.000000" stroke="none" 
	d="
M80.824554,33.691772 
	C80.504272,34.250683 80.024231,34.588047 79.236069,34.866093 
	C79.506889,34.361256 80.085838,33.915737 80.824554,33.691772 
z"/>
<path fill="#B3D2E3" opacity="1.000000" stroke="none" 
	d="
M209.322571,118.951065 
	C209.366196,118.298950 209.750290,117.608582 210.431824,116.817780 
	C210.373856,117.449173 210.018448,118.180992 209.322571,118.951065 
z"/>
<path fill="#AACDE0" opacity="1.000000" stroke="none" 
	d="
M28.421040,74.949554 
	C28.530172,75.584137 28.318516,76.320236 27.849892,77.218765 
	C27.762033,76.604485 27.931141,75.827782 28.421040,74.949554 
z"/>
<path fill="#7AAECC" opacity="1.000000" stroke="none" 
	d="
M197.261185,129.907028 
	C197.491638,129.300629 198.037338,128.705627 198.919708,128.160400 
	C198.696396,128.779587 198.136414,129.349014 197.261185,129.907028 
z"/>
<path fill="#BDC9D9" opacity="1.000000" stroke="none" 
	d="
M66.947861,130.970718 
	C67.600021,130.778778 68.370636,130.896530 69.314148,131.280899 
	C68.680145,131.458481 67.873230,131.369446 66.947861,130.970718 
z"/>
<path fill="#B3D2E3" opacity="1.000000" stroke="none" 
	d="
M149.081818,130.331116 
	C148.725937,130.878021 148.064697,131.305191 147.102951,131.615479 
	C147.460434,131.069534 148.118439,130.640457 149.081818,130.331116 
z"/>
<path fill="#AACDE0" opacity="1.000000" stroke="none" 
	d="
M30.415340,69.950783 
	C30.469936,70.582870 30.219051,71.325417 29.675224,72.188560 
	C29.624809,71.559853 29.867336,70.810547 30.415340,69.950783 
z"/>
<path fill="#B1CEDF" opacity="1.000000" stroke="none" 
	d="
M125.963501,30.037649 
	C125.508911,30.040241 125.075249,30.021399 124.315392,29.999840 
	C124.483521,29.692430 124.977852,29.387739 125.757111,29.317976 
	C126.042046,29.552906 126.026855,29.973909 126.026855,29.973909 
	C126.026855,29.973909 125.984428,30.016214 125.963501,30.037649 
z"/>
<path fill="#6AA4C6" opacity="1.000000" stroke="none" 
	d="
M126.404472,29.991024 
	C126.026855,29.973909 126.042046,29.552906 126.068909,29.344221 
	C126.506554,29.206076 126.917343,29.276617 127.431931,29.647797 
	C127.284508,29.968340 127.033295,29.988241 126.404472,29.991024 
z"/>
<path fill="#D1DAE4" opacity="1.000000" stroke="none" 
	d="
M119.803329,77.005272 
	C119.762451,86.448601 119.622871,85.052765 127.636848,85.308098 
	C129.250031,85.359489 132.109375,86.535400 132.189499,87.397720 
	C132.511108,90.858643 129.466705,89.891876 127.537849,89.912376 
	C119.272751,90.000244 119.794144,89.141518 119.795456,97.790695 
	C119.795731,99.618141 120.121490,101.534531 119.669090,103.243660 
	C119.333870,104.510109 117.980789,105.507149 117.081139,106.624207 
	C116.210999,105.471199 114.617165,104.337029 114.586586,103.162163 
	C114.366173,94.694939 114.406822,86.219032 114.472450,77.746719 
	C114.554619,67.138252 113.055969,68.509354 123.646690,68.401062 
	C126.304543,68.373878 128.982422,68.217384 131.611084,68.496696 
	C132.600220,68.601807 133.475906,69.774704 134.403305,70.460815 
	C133.471878,71.392227 132.638931,72.967491 131.589600,73.127968 
	C128.990814,73.525406 126.219818,72.912651 123.663750,73.428261 
	C122.229118,73.717659 121.084183,75.443222 119.803329,77.005272 
z"/>
<path fill="#F7FAFC" opacity="1.000000" stroke="none" 
	d="
M113.562630,34.077736 
	C115.247437,34.142544 116.648994,34.377113 118.129097,34.966309 
	C117.397858,36.176701 116.588074,37.032463 115.157913,37.983665 
	C114.059151,38.760639 113.580765,39.442177 113.102371,40.123714 
	C113.102371,40.123714 113.026634,39.995018 112.739449,40.018883 
	C111.958046,40.680038 111.463829,41.317333 110.969612,41.954624 
	C110.969612,41.954624 110.998940,42.000633 110.661957,41.988018 
	C109.852776,42.586975 109.380585,43.198547 108.908386,43.810116 
	C107.543221,45.160145 106.178055,46.510178 104.174507,47.967056 
	C103.050949,48.748802 102.565765,49.423702 102.080574,50.098602 
	C102.080574,50.098602 102.007835,50.002625 101.721367,50.023727 
	C100.947716,50.673519 100.460541,51.302212 99.973358,51.930904 
	C98.958275,52.957359 97.943192,53.983814 96.259857,55.056248 
	C94.311096,55.664227 93.030579,56.226227 91.750053,56.788227 
	C91.985619,56.379223 92.221184,55.970219 92.456749,55.561214 
	C90.532303,53.772934 88.607857,51.984657 86.683411,50.196381 
	C85.890671,49.629360 85.097931,49.062340 84.328735,47.954926 
	C85.585526,46.326992 86.818787,45.239449 88.052040,44.151901 
	C88.952263,43.935905 89.852493,43.719910 91.434479,43.613522 
	C92.764465,43.212551 93.412682,42.701977 94.060898,42.191402 
	C94.683990,42.027435 95.307083,41.863476 96.559349,41.774563 
	C97.838570,41.449722 98.488609,41.049831 99.138657,40.649940 
	C99.859222,40.488319 100.579796,40.326702 101.872986,40.394238 
	C103.320175,40.155216 104.194733,39.687038 105.069290,39.218857 
	C107.805984,37.561733 110.542686,35.904613 113.562630,34.077736 
z"/>
<path fill="#C7D1DF" opacity="1.000000" stroke="none" 
	d="
M86.787537,50.519058 
	C88.607857,51.984657 90.532303,53.772934 92.456749,55.561214 
	C92.221184,55.970219 91.985619,56.379223 91.750053,56.788227 
	C93.030579,56.226227 94.311096,55.664227 95.967987,55.158554 
	C91.020996,60.112362 85.817291,65.152161 80.286613,69.803116 
	C78.972031,70.908592 76.562828,70.712402 74.657120,71.114944 
	C74.404137,70.594284 74.151161,70.073616 73.898178,69.552948 
	C79.276276,64.647697 84.654381,59.742447 90.266243,54.623985 
	C89.024338,53.232048 87.958000,52.036892 86.787537,50.519058 
z"/>
<path fill="#C7D1DF" opacity="1.000000" stroke="none" 
	d="
M81.977600,46.756683 
	C78.314888,49.572136 74.652176,52.387589 70.667770,55.316250 
	C70.346062,55.429459 70.100304,55.123421 70.094330,54.669147 
	C73.720558,51.193497 77.352745,48.172119 81.094879,45.360508 
	C81.462410,45.965744 81.720009,46.361214 81.977600,46.756683 
z"/>
<path fill="#B5C3D5" opacity="1.000000" stroke="none" 
	d="
M168.905640,66.135437 
	C170.218903,66.999756 171.532166,67.864067 172.845444,68.728378 
	C172.352173,69.439110 171.858917,70.149849 171.058777,70.393707 
	C170.334244,70.038841 169.916580,70.150864 169.498932,70.262894 
	C168.272491,69.812149 167.046066,69.361404 165.691238,68.651436 
	C165.562851,68.392212 165.851410,68.126465 166.294418,68.039124 
	C167.460159,67.346336 168.182892,66.740883 168.905640,66.135437 
z"/>
<path fill="#C9DAE6" opacity="1.000000" stroke="none" 
	d="
M82.184906,46.987686 
	C81.720009,46.361214 81.462410,45.965744 81.302605,45.209526 
	C81.596092,44.573608 81.791779,44.298439 81.987473,44.023273 
	C83.772545,44.047337 85.557617,44.071400 87.697365,44.123684 
	C86.818787,45.239449 85.585526,46.326992 84.180069,47.701855 
	C83.469322,47.732342 82.930771,47.475513 82.184906,46.987686 
z"/>
<path fill="#FDFEFE" opacity="1.000000" stroke="none" 
	d="
M168.748505,65.881866 
	C168.182892,66.740883 167.460159,67.346336 166.437256,67.904709 
	C165.966064,66.565155 165.795029,65.272690 165.946701,63.872421 
	C167.043396,64.385849 167.817383,65.007072 168.748505,65.881866 
z"/>
<path fill="#C1CCDB" opacity="1.000000" stroke="none" 
	d="
M111.282501,41.941689 
	C111.463829,41.317333 111.958046,40.680038 112.787621,40.076149 
	C112.613785,40.715954 112.104591,41.322353 111.282501,41.941689 
z"/>
<path fill="#C1CCDB" opacity="1.000000" stroke="none" 
	d="
M109.221466,43.805424 
	C109.380585,43.198547 109.852776,42.586975 110.639702,41.972153 
	C110.481140,42.579514 110.007843,43.190121 109.221466,43.805424 
z"/>
<path fill="#C1CCDB" opacity="1.000000" stroke="none" 
	d="
M113.416824,40.097900 
	C113.580765,39.442177 114.059151,38.760639 114.888382,38.115311 
	C114.736580,38.791714 114.233925,39.431904 113.416824,40.097900 
z"/>
<path fill="#C1CCDB" opacity="1.000000" stroke="none" 
	d="
M100.290215,51.936615 
	C100.460541,51.302212 100.947716,50.673519 101.766624,50.063499 
	C101.601250,50.702225 101.104156,51.322273 100.290215,51.936615 
z"/>
<path fill="#C1CCDB" opacity="1.000000" stroke="none" 
	d="
M102.393867,50.063915 
	C102.565765,49.423702 103.050949,48.748802 103.887802,48.112869 
	C103.728699,48.777630 103.217934,49.403427 102.393867,50.063915 
z"/>
<path fill="#FDFEFE" opacity="1.000000" stroke="none" 
	d="
M169.857742,70.366493 
	C169.916580,70.150864 170.334244,70.038841 170.856934,70.174622 
	C170.713501,70.438324 170.465027,70.454208 169.857742,70.366493 
z"/>
<path fill="#FDFEFE" opacity="1.000000" stroke="none" 
	d="
M81.856903,43.904854 
	C81.791779,44.298439 81.596092,44.573608 81.192673,44.999756 
	C77.352745,48.172119 73.720558,51.193497 69.967682,54.519241 
	C68.794624,55.227699 67.742256,55.631798 66.348450,56.028648 
	C65.987122,55.537529 65.967224,55.053661 65.889160,54.210667 
	C65.830986,53.851543 65.835007,53.862625 66.179268,53.870422 
	C67.000580,53.226650 67.477638,52.575085 67.954697,51.923523 
	C70.710075,49.337326 73.465454,46.751129 76.970398,44.060230 
	C78.944092,43.861561 80.168205,43.767593 81.392326,43.673630 
	C81.392326,43.673630 81.726326,43.786434 81.856903,43.904854 
z"/>
<path fill="#C9DAE6" opacity="1.000000" stroke="none" 
	d="
M81.238899,43.360153 
	C80.168205,43.767593 78.944092,43.861561 77.261597,43.905144 
	C78.230644,43.585403 79.658058,43.316044 81.238899,43.360153 
z"/>
<path fill="#C9DAE6" opacity="1.000000" stroke="none" 
	d="
M104.730545,39.136135 
	C104.194733,39.687038 103.320175,40.155216 102.244690,40.397911 
	C102.826447,39.799419 103.609123,39.426414 104.730545,39.136135 
z"/>
<path fill="#C9DAE6" opacity="1.000000" stroke="none" 
	d="
M98.849289,40.522179 
	C98.488609,41.049831 97.838570,41.449722 96.881348,41.747948 
	C97.236092,41.228996 97.898010,40.811710 98.849289,40.522179 
z"/>
<path fill="#C9DAE6" opacity="1.000000" stroke="none" 
	d="
M67.639511,51.952301 
	C67.477638,52.575085 67.000580,53.226650 66.182312,53.859406 
	C66.335503,53.220753 66.829918,52.600918 67.639511,51.952301 
z"/>
<path fill="#C9DAE6" opacity="1.000000" stroke="none" 
	d="
M93.748093,42.134621 
	C93.412682,42.701977 92.764465,43.212551 91.780334,43.576687 
	C92.108040,42.979443 92.771667,42.528637 93.748093,42.134621 
z"/>
</svg>